<svg height="464pt" viewBox="0 -4 464 464" width="464pt"
  xmlns="http://www.w3.org/2000/svg"
  xmlns:xlink="http://www.w3.org/1999/xlink">
  <linearGradient id="linear0" gradientUnits="userSpaceOnUse" x1="0" x2="464" y1="228" y2="228">
    <stop offset="0" stop-color="#41dfd0"/>
    <stop offset="1" stop-color="#ee83ef"/>
  </linearGradient>
  <path d="m144 224h32.71875c1.203125 7.125 4.007812 13.882812 8.203125 19.769531l-22.578125 22.574219c-2.078125 2.007812-2.914062 4.984375-2.179688 7.78125.730469 2.796875 2.914063 4.980469 5.710938 5.710938 2.796875.734374 5.773438-.101563 7.78125-2.179688l22.574219-22.578125c5.886719 4.195313 12.644531 7 19.769531 8.203125v32.71875c0 4.417969 3.582031 8 8 8s8-3.582031 8-8v-32.71875c7.125-1.203125 13.882812-4.007812 19.769531-8.203125l14.574219 14.578125c3.140625 3.03125 8.128906 2.988281 11.214844-.097656 3.085937-3.085938 3.128906-8.074219.097656-11.214844l-14.578125-14.574219c4.226563-5.925781 7.035156-12.734375 8.21875-19.914062.246094 0 .457031.144531.703125.144531h40c4.417969 0 8-3.582031 8-8s-3.582031-8-8-8h-40c-.246094 0-.457031.121094-.703125.144531-1.183594-7.179687-3.992187-13.988281-8.21875-19.914062l22.578125-22.574219c3.03125-3.140625 2.988281-8.128906-.097656-11.214844-3.085938-3.085937-8.074219-3.128906-11.214844-.097656l-22.574219 22.578125c-5.886719-4.195313-12.644531-7-19.769531-8.203125v-32.71875c0-4.417969-3.582031-8-8-8s-8 3.582031-8 8v32.71875c-7.125 1.203125-13.882812 4.007812-19.769531 8.203125l-14.574219-14.578125c-3.140625-3.03125-8.128906-2.988281-11.214844.097656-3.085937 3.085938-3.128906 8.074219-.097656 11.214844l14.578125 14.574219c-4.195313 5.886719-7 12.644531-8.203125 19.769531h-32.71875c-4.417969 0-8 3.582031-8 8s3.582031 8 8 8zm57.367188-22.625c2.121093 0 4.15625-.84375 5.65625-2.34375 2.789062-2.820312 3.050781-7.269531.617187-10.398438 10.027344-6.199218 22.691406-6.199218 32.71875 0-2.433594 3.128907-2.171875 7.578126.617187 10.398438 2.777344 2.882812 7.300782 3.148438 10.398438.617188 6.1875 10.023437 6.1875 22.679687 0 32.703124-3.117188-2.460937-7.582031-2.199218-10.390625.609376-2.804687 2.808593-3.066406 7.273437-.609375 10.390624-10.144531 6.261719-22.976562 6.195313-33.054688-.175781 1.328126-3 .675782-6.511719-1.648437-8.832031-2.320313-2.324219-5.828125-2.976562-8.832031-1.648438-6.371094-10.074218-6.441406-22.902343-.183594-33.046874 1.34375 1.070312 2.996094 1.675781 4.710938 1.726562zm-10.558594-151.503906c16.707031-2.480469 33.691406-2.480469 50.398437 0 4.175781.59375 7.171875 4.324218 6.851563 8.527344-.316406 4.203124-3.84375 7.4375-8.058594 7.394531-.402344-.003907-.800781-.03125-1.199219-.089844-15.117187-2.261719-30.484375-2.261719-45.601562 0-4.371094.664063-8.453125-2.34375-9.113281-6.714844-.664063-4.371093 2.34375-8.453125 6.714843-9.117187zm-107.609375 76.527344c-3.535157-2.648438-4.25-7.664063-1.597657-11.199219 21.046876-28.164063 50.441407-48.976563 84-59.480469 4.214844-1.324219 8.703126 1.019531 10.03125 5.234375 1.324219 4.214844-1.019531 8.707031-5.234374 10.03125-30.359376 9.5-56.957032 28.332031-76 53.816406-2.648438 3.535157-7.664063 4.25-11.199219 1.597657zm-27.503907 39.203124c2.730469-8.667968 6.15625-17.097656 10.25-25.210937 1.230469-2.640625 3.804688-4.40625 6.714844-4.601563 2.910156-.195312 5.695313 1.210938 7.269532 3.667969 1.574218 2.453125 1.6875 5.570313.292968 8.136719-3.703125 7.335938-6.804687 14.964844-9.261718 22.804688-1.328126 4.21875-5.820313 6.5625-10.035157 5.238281-4.21875-1.328125-6.5625-5.820313-5.238281-10.035157zm.710938 102.992188c-8.207031-25.066406-10.441406-51.703125-6.519531-77.785156.378906-2.871094 2.28125-5.3125 4.96875-6.382813 2.691406-1.074219 5.746093-.609375 7.996093 1.214844 2.25 1.820313 3.339844 4.714844 2.851563 7.566406-1.132813 7.546875-1.703125 15.164063-1.703125 22.792969-.019531 16.167969 2.546875 32.234375 7.59375 47.59375 1.378906 4.195312-.90625 8.71875-5.101562 10.097656-4.199219 1.382813-8.71875-.902344-10.101563-5.097656zm136.800781 97.703125c-8.898437-1.359375-17.660156-3.5-26.183593-6.402344 8.417968-3.550781 16.855468-7.0625 25.191406-10.453125 75.863281-30.644531 136.367187-90.285156 168.097656-165.699218l63.046875-148.613282c1.234375-2.90625.644531-6.265625-1.507813-8.578125-2.148437-2.308593-5.457031-3.140625-8.445312-2.117187l-121.757812 41.742187c-8.097657-4.207031-16.546876-7.703125-25.25-10.449219-4.214844-1.324218-8.703126 1.019532-10.03125 5.234376-1.324219 4.214843 1.019531 8.707031 5.234374 10.03125 2.75.863281 5.320313 1.917968 7.949219 2.902343-88.558593 32.171875-157.777343 102.734375-188.238281 191.898438-24 70.984375-48.59375 138.800781-48.800781 139.472656-.890625 2.445313-.535157 5.175781.957031 7.3125 1.488281 2.136719 3.925781 3.414063 6.53125 3.421875 1.191406-.003906 2.363281-.277344 3.433594-.800781.605468-.289063 48.40625-22.941407 102.765625-46.457031 14.171875 6.515624 29.1875 11.011718 44.609375 13.363281.398437.046875.796875.074219 1.199218.078125 4.1875 0 7.667969-3.230469 7.980469-7.40625.308594-4.175782-2.652343-7.886719-6.796875-8.503906zm-104.40625-72.792969 31.046875-16.9375c3.878906-2.113281 5.308594-6.976562 3.191406-10.855468-2.117187-3.878907-6.976562-5.308594-10.855468-3.191407l-15.785156 8.601563.074218-.210938c29.375-86.066406 96.792969-153.78125 182.726563-183.542968l122.402343-41.984376-32.921874 77.601563-65.839844 38.09375c-3.128906 1.816406-4.648438 5.5-3.710938 8.992187.933594 3.492188 4.097656 5.921876 7.710938 5.929688 1.40625 0 2.785156-.371094 4-1.078125l47.433594-27.441406-12.671876 30.015625c-30.105468 71.5-87.484374 128.039062-159.425781 157.078125-8 3.257812-16.097656 6.625-24.167969 10.027343l11.792969-20.601562c1.5-2.484375 1.535157-5.589844.089844-8.109375-1.441406-2.519531-4.136719-4.058594-7.039063-4.023437-2.902343.035156-5.558593 1.644531-6.941406 4.195312l-18.496094 32.335938c-11.597656-6.523438-22.296874-14.542969-31.8125-23.847657-3.164062-3.089843-8.234374-3.035156-11.324218.125-3.09375 3.160157-3.039063 8.230469.121094 11.324219 9.003906 8.816406 18.96875 16.601562 29.707031 23.199219-30.183594 13.207031-57.3125 25.601562-74.058594 33.417969 7.554687-21.167969 20.808594-58.441407 34.753906-99.113282zm206.398438 61.808594c1.996093 3.945312.410156 8.761719-3.535157 10.75-18.390624 9.308594-38.351562 15.117188-58.863281 17.136719-.273437 0-.535156.039062-.800781.039062-4.417969.222657-8.179688-3.179687-8.398438-7.597656-.222656-4.417969 3.179688-8.179687 7.597657-8.402344 18.53125-1.820312 36.566406-7.066406 53.183593-15.460937 1.898438-.960938 4.097657-1.128906 6.113282-.464844 2.019531.664062 3.691406 2.101562 4.648437 4zm81.113281-88.914062c-10.515625 33.5625-31.339844 62.953124-59.511719 84-3.535156 2.652343-8.550781 1.9375-11.199219-1.597657-2.652343-3.535156-1.9375-8.550781 1.597657-11.199219 25.492187-19.042968 44.328125-45.636718 53.832031-76 1.328125-4.21875 5.820312-6.5625 10.035156-5.238281 4.21875 1.328125 6.5625 5.820313 5.238282 10.035157zm4.328125-84c3.910156 19.359374 4.410156 39.253906 1.480469 58.785156-.589844 3.910156-3.945313 6.800781-7.898438 6.808594-.402344 0-.804687-.03125-1.207031-.089844-4.367187-.660156-7.371094-4.734375-6.710937-9.101563 2.644531-17.675781 2.191406-35.679687-1.34375-53.199219-.882813-4.332031 1.910156-8.558593 6.238281-9.441406 4.332031-.882812 8.558593 1.910156 9.441406 6.238282zm-65.839844-81.917969c-3.359375-2.871094-3.753906-7.921875-.878906-11.28125 2.871094-3.355469 7.921875-3.75 11.277344-.878907 9.351562 8.015626 17.800781 17.03125 25.199219 26.878907 2.652343 3.535156 1.9375 8.550781-1.597657 11.199219-3.535156 2.652343-8.550781 1.9375-11.199219-1.597657-6.691406-8.910156-14.335937-17.0625-22.800781-24.3125zm-63.242187 42.167969c-3.675782-2.453126-4.667969-7.421876-2.214844-11.097657l16-24c2.453125-3.675781 7.421875-4.667969 11.097656-2.214843 3.675782 2.453124 4.667969 7.421874 2.214844 11.097656l-16 24c-2.453125 3.675781-7.421875 4.667968-11.097656 2.214844zm172.441406 249.351562h16v16h-16zm-24 24h16v16h-16zm-80-16h16v16h-16zm144 16v16h-16v-16zm-40 24h16v16h-16zm-384-424h-16v-16h16zm-24 24h-16v-16h16zm48 0h-16v-16h16zm136-24h-16v-16h16zm-72 0h-16v-16h16zm-88 48h-16v-16h16zm384 248h-16v-16h16zm-16 0v16h-16v-16zm-56 72h16v16h-16zm-344-216h16v16h-16zm416 144h16v16h-16zm-16 16h16v16h-16zm-392-208h-16v-16h16zm0 0" fill="url(#linear0)"/>
</svg>